<svg xmlns="http://www.w3.org/2000/svg" xmlns:xlink="http://www.w3.org/1999/xlink"
    viewBox="0 0 48 48" width="48" height="48" preserveAspectRatio="xMidYMid meet"
    style="width: 100%; height: 100%; transform: translate3d(0px, 0px, 0px); content-visibility: visible;">
    <defs>
        <clipPath id="__lottie_element_2">
            <rect width="48" height="48" x="0" y="0"></rect>
        </clipPath>
    </defs>
    <g clip-path="url(#__lottie_element_2)">
        <g transform="matrix(1,0,0,1,0,0)" opacity="1" style="display: block;">
            <g opacity="1" transform="matrix(1,0,0,1,0,0)">
                <path stroke-linecap="round" stroke-linejoin="round" fill-opacity="0"
                    stroke="rgb(0,0,0)" stroke-opacity="1" stroke-width="1"
                    d=" M15.5,15 C15.5,15 16.243000030517578,15 17.341999053955078,15"></path>
            </g>
        </g>
        <g transform="matrix(1,0,0,1,0,0)" opacity="1" style="display: block;">
            <g opacity="1" transform="matrix(1,0,0,1,21,20.5)">
                <path stroke-linecap="round" stroke-linejoin="round" fill-opacity="0"
                    stroke="rgb(0,0,0)" stroke-opacity="1" stroke-width="1"
                    d=" M-5.5,-3 C-5.5,-3 5.5,-3 5.5,-3 C5.5,-3 5.5,3 5.5,3 C5.5,3 -5.5,3 -5.5,3 C-5.5,3 -5.5,-2.2019999027252197 -5.5,-2.9189999103546143"></path>
            </g>
        </g>
        <g transform="matrix(1,0,0,1,0,0)" opacity="1" style="display: block;">
            <g opacity="1" transform="matrix(1,0,0,1,0,0)">
                <path stroke-linecap="round" stroke-linejoin="round" fill-opacity="0"
                    stroke="rgb(0,0,0)" stroke-opacity="1" stroke-width="1"
                    d=" M15.5,26 C15.5,26 19.5,26 19.5,26"></path>
            </g>
        </g>
        <g transform="matrix(1,0,0,1,0,0)" opacity="1" style="display: block;">
            <g opacity="1" transform="matrix(1,0,0,1,0,0)">
                <path stroke-linecap="round" stroke-linejoin="round" fill-opacity="0"
                    stroke="rgb(0,0,0)" stroke-opacity="1" stroke-width="1"
                    d=" M15.5,28 C15.5,28 19.5,28 19.5,28"></path>
            </g>
        </g>
        <g transform="matrix(1,0,0,1,0,0)" opacity="1" style="display: block;">
            <g opacity="1" transform="matrix(1,0,0,1,0,0)">
                <path stroke-linecap="round" stroke-linejoin="round" fill-opacity="0"
                    stroke="rgb(0,0,0)" stroke-opacity="1" stroke-width="1"
                    d=" M15.5,30 C15.5,30 19.5,30 19.5,30"></path>
            </g>
        </g>
        <g transform="matrix(1,0,0,1,0,0)" opacity="1" style="display: block;">
            <g opacity="1" transform="matrix(1,0,0,1,0,0)">
                <path stroke-linecap="round" stroke-linejoin="round" fill-opacity="0"
                    stroke="rgb(0,0,0)" stroke-opacity="1" stroke-width="1"
                    d=" M15.5,32 C15.5,32 18.5,32 18.5,32"></path>
            </g>
        </g>
        <g transform="matrix(1,0,0,1,0,0)" opacity="1" style="display: block;">
            <g opacity="1" transform="matrix(1,0,0,1,0,0)">
                <path stroke-linecap="round" stroke-linejoin="round" fill-opacity="0"
                    stroke="rgb(0,0,0)" stroke-opacity="1" stroke-width="1"
                    d=" M22.5,26 C22.5,26 26.5,26 26.5,26"></path>
            </g>
        </g>
        <g transform="matrix(1,0,0,1,0,0)" opacity="1" style="display: block;">
            <g opacity="1" transform="matrix(1,0,0,1,0,0)">
                <path stroke-linecap="round" stroke-linejoin="round" fill-opacity="0"
                    stroke="rgb(0,0,0)" stroke-opacity="1" stroke-width="1"
                    d=" M22.5,28 C22.5,28 26.5,28 26.5,28"></path>
            </g>
        </g>
        <g transform="matrix(1,0,0,1,0,0)" opacity="1" style="display: block;">
            <g opacity="1" transform="matrix(1,0,0,1,0,0)">
                <path stroke-linecap="round" stroke-linejoin="round" fill-opacity="0"
                    stroke="rgb(0,0,0)" stroke-opacity="1" stroke-width="1"
                    d=" M22.5,30 C22.5,30 26.5,30 26.5,30"></path>
            </g>
        </g>
        <g transform="matrix(1,0,0,1,0,0)" opacity="1" style="display: block;">
            <g opacity="1" transform="matrix(1,0,0,1,0,0)">
                <path stroke-linecap="round" stroke-linejoin="round" fill-opacity="0"
                    stroke="rgb(0,0,0)" stroke-opacity="1" stroke-width="1"
                    d=" M22.5,32 C22.5,32 24.5,32 24.5,32"></path>
            </g>
        </g>
        <g transform="matrix(1,0,0,1,0,0)" opacity="1" style="display: block;">
            <g opacity="1" transform="matrix(1,0,0,1,31.5,23.75)">
                <path stroke-linecap="round" stroke-linejoin="round" fill-opacity="0"
                    stroke="rgb(0,0,0)" stroke-opacity="1" stroke-width="1"
                    d=" M0,-6.25 C0,-6.25 2,-6.25 2,-6.25 C2,-6.25 2,8.75 2,8.75 C2,9.302000045776367 1.5529999732971191,9.75 1,9.75 C0.4480000138282776,9.75 0,9.302000045776367 0,8.75 C0,8.75 0,-9.75 0,-9.75 C0,-9.75 -0.019999999552965164,-9.75 -0.0560000017285347,-9.75"></path>
            </g>
        </g>
        <g transform="matrix(1,0,0,1,0,0)" opacity="1" style="display: block;">
            <g opacity="1" transform="matrix(1,0,0,1,24,24)">
                <path stroke-linecap="round" stroke-linejoin="round" fill-opacity="0"
                    stroke="rgb(0,0,0)" stroke-opacity="1" stroke-width="1"
                    d=" M3.5999999046325684,11.5 C-1.4220000505447388,11.5 -8.5,11.5 -8.5,11.5 C-10.156000137329102,11.5 -11.5,10.156999588012695 -11.5,8.5 C-11.5,8.5 -11.5,-11.5 -11.5,-11.5 C-11.5,-11.5 5.5,-11.5 5.5,-11.5 C5.5,-11.5 5.5,8.5 5.5,8.5 C5.5,10.156999588012695 6.843999862670898,11.5 8.5,11.5 C10.156999588012695,11.5 11.5,10.156999588012695 11.5,8.5 C11.5,8.5 11.5,-8.5 11.5,-8.5 C11.5,-8.5 7.5,-8.5 7.5,-8.5"></path>
            </g>
        </g>
    </g>
</svg>